# xmcd CD database file
#
# Track frame offsets:
#	150
#	13080
#	32452
#	49177
#	68215
#	85205
#	103505
#	122617
#	134430
#	153445
#	166782
#	181865
#	194320
#	209457
#	227722
#
# Disc length: 3211 seconds
#
# Revision: 2
# Processed by: cddbd v1.5.1PL2 Copyright (c) Steve Scherf et al.
# Submitted via: CDex 1.51
#
DISCID=c10c890f
DTITLE=Heather, Cookie and Raylene Rankin - Do You Hear... Christmas With Heather, Cookie and Raylene Rankin
DYEAR=1997
DGENRE=Country
TTITLE0=Rockin' Around The Christmas Tree
TTITLE1=The Christmas Star
TTITLE2=I Wonder As I Wander
TTITLE3=Jesus Christ The Apple Tree
TTITLE4=Do You Hear What I Hear
TTITLE5=Taladh Chriosda (The Christ Child's Lullaby)
TTITLE6=A'Challuinn (The New Year)
TTITLE7=Let It Snow! Let It Snow! Let It Snow!
TTITLE8=Quelle Est Cette Odeur? (What Is This Scent So Pure and Lovely?)
TTITLE9=Ave Maria
TTITLE10=Welcome Yule
TTITLE11=The Conventry Carol
TTITLE12=Children Go Where I Send You
TTITLE13=Angels We Have Heard On High
TTITLE14=Oh Night Of Joy and Gladness
EXTD=YEAR: 1997
EXTT0=
EXTT1=
EXTT2=
EXTT3=
EXTT4=
EXTT5=
EXTT6=
EXTT7=
EXTT8=
EXTT9=
EXTT10=
EXTT11=
EXTT12=
EXTT13=
EXTT14=
PLAYORDER=
